<mxfile modified="2022-06-03T14:35:40.159Z" host="app.diagrams.net" agent="5.0 (Windows NT 10.0; Win64; x64) AppleWebKit/537.36 (KHTML, like Gecko) Chrome/102.0.0.0 Safari/537.36" etag="rHgDdyE-zhqcSnLOBOCR" version="18.1.3" type="github">
  <diagram id="Ht1M8jgEwFfnCIfOTk4-" name="Page-1">
    <mxGraphModel dx="1483" dy="836" grid="1" gridSize="10" guides="1" tooltips="1" connect="1" arrows="1" fold="1" page="1" pageScale="1" pageWidth="1169" pageHeight="827" math="0" shadow="0">
      <root>
        <mxCell id="0" />
        <mxCell id="1" parent="0" />
        <mxCell id="gxRaYX6OKgZsaJezbjnv-42" value="AWS Cloud" style="points=[[0,0],[0.25,0],[0.5,0],[0.75,0],[1,0],[1,0.25],[1,0.5],[1,0.75],[1,1],[0.75,1],[0.5,1],[0.25,1],[0,1],[0,0.75],[0,0.5],[0,0.25]];outlineConnect=0;gradientColor=none;html=1;whiteSpace=wrap;fontSize=12;fontStyle=0;container=1;pointerEvents=0;collapsible=0;recursiveResize=0;shape=mxgraph.aws4.group;grIcon=mxgraph.aws4.group_aws_cloud_alt;strokeColor=#232F3E;fillColor=none;verticalAlign=top;align=left;spacingLeft=30;fontColor=#232F3E;dashed=0;" vertex="1" parent="1">
          <mxGeometry x="100" y="110" width="960" height="260" as="geometry" />
        </mxCell>
        <mxCell id="gxRaYX6OKgZsaJezbjnv-140" value="" style="sketch=0;points=[[0,0,0],[0.25,0,0],[0.5,0,0],[0.75,0,0],[1,0,0],[0,1,0],[0.25,1,0],[0.5,1,0],[0.75,1,0],[1,1,0],[0,0.25,0],[0,0.5,0],[0,0.75,0],[1,0.25,0],[1,0.5,0],[1,0.75,0]];outlineConnect=0;gradientDirection=north;dashed=0;verticalLabelPosition=bottom;verticalAlign=top;align=center;html=1;fontSize=12;fontStyle=0;aspect=fixed;shape=mxgraph.aws4.resourceIcon;resIcon=mxgraph.aws4.eventbridge;strokeColor=#FFB570;gradientColor=#ffffff;fillColor=none;" vertex="1" parent="gxRaYX6OKgZsaJezbjnv-42">
          <mxGeometry x="397.5" y="-10" width="280" height="280" as="geometry" />
        </mxCell>
        <mxCell id="gxRaYX6OKgZsaJezbjnv-102" value="" style="edgeStyle=orthogonalEdgeStyle;rounded=0;orthogonalLoop=1;jettySize=auto;html=1;" edge="1" parent="gxRaYX6OKgZsaJezbjnv-42" source="gxRaYX6OKgZsaJezbjnv-43" target="gxRaYX6OKgZsaJezbjnv-76">
          <mxGeometry relative="1" as="geometry" />
        </mxCell>
        <mxCell id="gxRaYX6OKgZsaJezbjnv-43" value="" style="sketch=0;points=[[0,0,0],[0.25,0,0],[0.5,0,0],[0.75,0,0],[1,0,0],[0,1,0],[0.25,1,0],[0.5,1,0],[0.75,1,0],[1,1,0],[0,0.25,0],[0,0.5,0],[0,0.75,0],[1,0.25,0],[1,0.5,0],[1,0.75,0]];outlineConnect=0;fontColor=#232F3E;gradientColor=#F78E04;gradientDirection=north;fillColor=#D05C17;strokeColor=#ffffff;dashed=0;verticalLabelPosition=bottom;verticalAlign=top;align=center;html=1;fontSize=12;fontStyle=0;aspect=fixed;shape=mxgraph.aws4.resourceIcon;resIcon=mxgraph.aws4.lambda;" vertex="1" parent="gxRaYX6OKgZsaJezbjnv-42">
          <mxGeometry x="489" y="81.5" width="97" height="97" as="geometry" />
        </mxCell>
        <mxCell id="gxRaYX6OKgZsaJezbjnv-88" value="" style="edgeStyle=orthogonalEdgeStyle;rounded=0;orthogonalLoop=1;jettySize=auto;html=1;" edge="1" parent="gxRaYX6OKgZsaJezbjnv-42" source="gxRaYX6OKgZsaJezbjnv-76" target="gxRaYX6OKgZsaJezbjnv-82">
          <mxGeometry relative="1" as="geometry" />
        </mxCell>
        <mxCell id="gxRaYX6OKgZsaJezbjnv-76" value="Amazon S3" style="outlineConnect=0;fontColor=#232F3E;gradientColor=#60A337;gradientDirection=north;fillColor=#277116;strokeColor=#ffffff;dashed=0;verticalLabelPosition=bottom;verticalAlign=top;align=center;html=1;fontSize=12;fontStyle=0;aspect=fixed;shape=mxgraph.aws4.resourceIcon;resIcon=mxgraph.aws4.s3;labelBackgroundColor=#ffffff;" vertex="1" parent="gxRaYX6OKgZsaJezbjnv-42">
          <mxGeometry x="700.0000000000002" y="92" width="78" height="78" as="geometry" />
        </mxCell>
        <mxCell id="gxRaYX6OKgZsaJezbjnv-82" value="IAM Roles" style="outlineConnect=0;fontColor=#232F3E;gradientColor=none;fillColor=#C7131F;strokeColor=none;dashed=0;verticalLabelPosition=bottom;verticalAlign=top;align=center;html=1;fontSize=12;fontStyle=0;aspect=fixed;pointerEvents=1;shape=mxgraph.aws4.role;labelBackgroundColor=#ffffff;" vertex="1" parent="gxRaYX6OKgZsaJezbjnv-42">
          <mxGeometry x="850.0000000000002" y="108" width="78" height="44" as="geometry" />
        </mxCell>
        <mxCell id="gxRaYX6OKgZsaJezbjnv-137" value="" style="edgeStyle=orthogonalEdgeStyle;rounded=0;orthogonalLoop=1;jettySize=auto;html=1;entryX=0.176;entryY=0.385;entryDx=0;entryDy=0;entryPerimeter=0;" edge="1" parent="gxRaYX6OKgZsaJezbjnv-42" source="gxRaYX6OKgZsaJezbjnv-89" target="gxRaYX6OKgZsaJezbjnv-135">
          <mxGeometry relative="1" as="geometry" />
        </mxCell>
        <mxCell id="gxRaYX6OKgZsaJezbjnv-89" value="IAM Roles" style="outlineConnect=0;fontColor=#232F3E;gradientColor=none;fillColor=#C7131F;strokeColor=none;dashed=0;verticalLabelPosition=bottom;verticalAlign=top;align=center;html=1;fontSize=12;fontStyle=0;aspect=fixed;pointerEvents=1;shape=mxgraph.aws4.role;labelBackgroundColor=#ffffff;" vertex="1" parent="gxRaYX6OKgZsaJezbjnv-42">
          <mxGeometry x="50.00000000000023" y="99" width="78" height="44" as="geometry" />
        </mxCell>
        <mxCell id="gxRaYX6OKgZsaJezbjnv-90" value="Amazon S3" style="outlineConnect=0;fontColor=#232F3E;gradientColor=#60A337;gradientDirection=north;fillColor=#277116;strokeColor=#ffffff;dashed=0;verticalLabelPosition=bottom;verticalAlign=top;align=center;html=1;fontSize=12;fontStyle=0;aspect=fixed;shape=mxgraph.aws4.resourceIcon;resIcon=mxgraph.aws4.s3;labelBackgroundColor=#ffffff;" vertex="1" parent="gxRaYX6OKgZsaJezbjnv-42">
          <mxGeometry x="220.00000000000023" y="87" width="78" height="78" as="geometry" />
        </mxCell>
        <mxCell id="gxRaYX6OKgZsaJezbjnv-93" value="" style="sketch=0;outlineConnect=0;fontColor=#232F3E;gradientColor=none;fillColor=#BF0816;strokeColor=none;dashed=0;verticalLabelPosition=bottom;verticalAlign=top;align=center;html=1;fontSize=12;fontStyle=0;aspect=fixed;pointerEvents=1;shape=mxgraph.aws4.encrypted_data;" vertex="1" parent="gxRaYX6OKgZsaJezbjnv-42">
          <mxGeometry x="250" y="136" width="62" height="78" as="geometry" />
        </mxCell>
        <mxCell id="gxRaYX6OKgZsaJezbjnv-135" value="" style="rounded=1;arcSize=10;dashed=0;fillColor=none;gradientColor=none;strokeWidth=2;" vertex="1" parent="gxRaYX6OKgZsaJezbjnv-42">
          <mxGeometry x="190" y="50" width="150" height="182" as="geometry" />
        </mxCell>
        <mxCell id="gxRaYX6OKgZsaJezbjnv-138" value="" style="html=1;shadow=0;dashed=0;align=center;verticalAlign=middle;shape=mxgraph.arrows2.jumpInArrow;dy=15;dx=38;arrowHead=55;rotation=30;" vertex="1" parent="gxRaYX6OKgZsaJezbjnv-42">
          <mxGeometry x="370.01" y="23.96" width="91.34" height="103" as="geometry" />
        </mxCell>
        <mxCell id="gxRaYX6OKgZsaJezbjnv-139" value="" style="html=1;shadow=0;dashed=0;align=center;verticalAlign=middle;shape=mxgraph.arrows2.jumpInArrow;dy=15;dx=38;arrowHead=55;rotation=-180;" vertex="1" parent="gxRaYX6OKgZsaJezbjnv-42">
          <mxGeometry x="350" y="132" width="90" height="100" as="geometry" />
        </mxCell>
        <mxCell id="gxRaYX6OKgZsaJezbjnv-97" value="" style="sketch=0;outlineConnect=0;fontColor=#232F3E;gradientColor=none;fillColor=#BF0816;strokeColor=none;dashed=0;verticalLabelPosition=bottom;verticalAlign=top;align=center;html=1;fontSize=12;fontStyle=0;aspect=fixed;pointerEvents=1;shape=mxgraph.aws4.data_encryption_key;" vertex="1" parent="gxRaYX6OKgZsaJezbjnv-42">
          <mxGeometry x="540" y="143" width="62" height="78" as="geometry" />
        </mxCell>
        <mxCell id="gxRaYX6OKgZsaJezbjnv-87" value="lambda function takes encrypted file from userA s3, decrypts it, saves file as a s3 bucket that only the receiver (userB) has IAM roles for&lt;br&gt;https://aws.amazon.com/premiumsupport/knowledge-center/s3-encrypt-specific-folder/&amp;nbsp;&lt;br&gt;https://www.ibm.com/docs/vi/atcm/1.3.1?topic=cir-creating-iam-role-s3-access-in-same-aws-account" style="rounded=0;whiteSpace=wrap;html=1;align=left;" vertex="1" parent="1">
          <mxGeometry x="200" y="20" width="740" height="80" as="geometry" />
        </mxCell>
        <mxCell id="gxRaYX6OKgZsaJezbjnv-100" value="" style="edgeStyle=orthogonalEdgeStyle;rounded=0;orthogonalLoop=1;jettySize=auto;html=1;" edge="1" parent="1" source="gxRaYX6OKgZsaJezbjnv-98" target="gxRaYX6OKgZsaJezbjnv-89">
          <mxGeometry relative="1" as="geometry" />
        </mxCell>
        <mxCell id="gxRaYX6OKgZsaJezbjnv-98" value="" style="sketch=0;pointerEvents=1;shadow=0;dashed=0;html=1;strokeColor=none;fillColor=#005F4B;labelPosition=center;verticalLabelPosition=bottom;verticalAlign=top;align=center;outlineConnect=0;shape=mxgraph.veeam2.report;" vertex="1" parent="1">
          <mxGeometry x="22" y="211.5" width="28.000000000000004" height="39" as="geometry" />
        </mxCell>
        <mxCell id="gxRaYX6OKgZsaJezbjnv-99" value="" style="sketch=0;pointerEvents=1;shadow=0;dashed=0;html=1;strokeColor=none;fillColor=#005F4B;labelPosition=center;verticalLabelPosition=bottom;verticalAlign=top;align=center;outlineConnect=0;shape=mxgraph.veeam2.report;" vertex="1" parent="1">
          <mxGeometry x="1100" y="220.5" width="28.000000000000004" height="39" as="geometry" />
        </mxCell>
        <mxCell id="gxRaYX6OKgZsaJezbjnv-101" value="" style="edgeStyle=orthogonalEdgeStyle;rounded=0;orthogonalLoop=1;jettySize=auto;html=1;" edge="1" parent="1" source="gxRaYX6OKgZsaJezbjnv-82" target="gxRaYX6OKgZsaJezbjnv-99">
          <mxGeometry relative="1" as="geometry" />
        </mxCell>
        <mxCell id="gxRaYX6OKgZsaJezbjnv-105" value="Shared Services Account" style="points=[[0,0],[0.25,0],[0.5,0],[0.75,0],[1,0],[1,0.25],[1,0.5],[1,0.75],[1,1],[0.75,1],[0.5,1],[0.25,1],[0,1],[0,0.75],[0,0.5],[0,0.25]];outlineConnect=0;gradientColor=none;html=1;whiteSpace=wrap;fontSize=12;fontStyle=0;shape=mxgraph.aws4.group;grIcon=mxgraph.aws4.group_aws_cloud_alt;strokeColor=#232F3E;fillColor=none;verticalAlign=top;align=left;spacingLeft=30;fontColor=#232F3E;dashed=0;labelBackgroundColor=#ffffff;container=1;pointerEvents=0;collapsible=0;recursiveResize=0;" vertex="1" parent="1">
          <mxGeometry x="30" y="830" width="220" height="310" as="geometry" />
        </mxCell>
        <mxCell id="gxRaYX6OKgZsaJezbjnv-106" value="Log Archive Account" style="points=[[0,0],[0.25,0],[0.5,0],[0.75,0],[1,0],[1,0.25],[1,0.5],[1,0.75],[1,1],[0.75,1],[0.5,1],[0.25,1],[0,1],[0,0.75],[0,0.5],[0,0.25]];outlineConnect=0;gradientColor=none;html=1;whiteSpace=wrap;fontSize=12;fontStyle=0;shape=mxgraph.aws4.group;grIcon=mxgraph.aws4.group_aws_cloud_alt;strokeColor=#232F3E;fillColor=none;verticalAlign=top;align=left;spacingLeft=30;fontColor=#232F3E;dashed=0;labelBackgroundColor=#ffffff;container=1;pointerEvents=0;collapsible=0;recursiveResize=0;" vertex="1" parent="1">
          <mxGeometry x="275" y="830" width="230" height="310" as="geometry" />
        </mxCell>
        <mxCell id="gxRaYX6OKgZsaJezbjnv-107" value="Security Account" style="points=[[0,0],[0.25,0],[0.5,0],[0.75,0],[1,0],[1,0.25],[1,0.5],[1,0.75],[1,1],[0.75,1],[0.5,1],[0.25,1],[0,1],[0,0.75],[0,0.5],[0,0.25]];outlineConnect=0;gradientColor=none;html=1;whiteSpace=wrap;fontSize=12;fontStyle=0;shape=mxgraph.aws4.group;grIcon=mxgraph.aws4.group_aws_cloud_alt;strokeColor=#232F3E;fillColor=none;verticalAlign=top;align=left;spacingLeft=30;fontColor=#232F3E;dashed=0;labelBackgroundColor=#ffffff;container=1;pointerEvents=0;collapsible=0;recursiveResize=0;" vertex="1" parent="1">
          <mxGeometry x="531" y="830" width="230" height="310" as="geometry" />
        </mxCell>
        <mxCell id="gxRaYX6OKgZsaJezbjnv-108" value="AWS Cloud" style="points=[[0,0],[0.25,0],[0.5,0],[0.75,0],[1,0],[1,0.25],[1,0.5],[1,0.75],[1,1],[0.75,1],[0.5,1],[0.25,1],[0,1],[0,0.75],[0,0.5],[0,0.25]];outlineConnect=0;gradientColor=none;html=1;whiteSpace=wrap;fontSize=12;fontStyle=0;shape=mxgraph.aws4.group;grIcon=mxgraph.aws4.group_aws_cloud_alt;strokeColor=#232F3E;fillColor=none;verticalAlign=top;align=left;spacingLeft=30;fontColor=#232F3E;dashed=0;labelBackgroundColor=#ffffff;container=1;pointerEvents=0;collapsible=0;recursiveResize=0;" vertex="1" parent="1">
          <mxGeometry x="30" y="390" width="730" height="410" as="geometry" />
        </mxCell>
        <mxCell id="gxRaYX6OKgZsaJezbjnv-109" style="edgeStyle=orthogonalEdgeStyle;rounded=0;orthogonalLoop=1;jettySize=auto;html=1;startArrow=none;startFill=0;endArrow=open;endFill=0;strokeColor=#808080;strokeWidth=2;" edge="1" parent="1" source="gxRaYX6OKgZsaJezbjnv-119" target="gxRaYX6OKgZsaJezbjnv-120">
          <mxGeometry relative="1" as="geometry" />
        </mxCell>
        <mxCell id="gxRaYX6OKgZsaJezbjnv-110" style="edgeStyle=orthogonalEdgeStyle;rounded=0;orthogonalLoop=1;jettySize=auto;html=1;startArrow=none;startFill=0;endArrow=open;endFill=0;strokeColor=#808080;strokeWidth=2;" edge="1" parent="1" source="gxRaYX6OKgZsaJezbjnv-120" target="gxRaYX6OKgZsaJezbjnv-121">
          <mxGeometry relative="1" as="geometry" />
        </mxCell>
        <mxCell id="gxRaYX6OKgZsaJezbjnv-111" style="edgeStyle=orthogonalEdgeStyle;rounded=0;orthogonalLoop=1;jettySize=auto;html=1;startArrow=none;startFill=0;endArrow=open;endFill=0;strokeColor=#808080;strokeWidth=2;" edge="1" parent="1" source="gxRaYX6OKgZsaJezbjnv-120" target="gxRaYX6OKgZsaJezbjnv-123">
          <mxGeometry relative="1" as="geometry">
            <Array as="points">
              <mxPoint x="166" y="490" />
            </Array>
          </mxGeometry>
        </mxCell>
        <mxCell id="gxRaYX6OKgZsaJezbjnv-112" style="edgeStyle=orthogonalEdgeStyle;rounded=0;orthogonalLoop=1;jettySize=auto;html=1;startArrow=none;startFill=0;endArrow=open;endFill=0;strokeColor=#808080;strokeWidth=2;" edge="1" parent="1" source="gxRaYX6OKgZsaJezbjnv-120" target="gxRaYX6OKgZsaJezbjnv-124">
          <mxGeometry relative="1" as="geometry" />
        </mxCell>
        <mxCell id="gxRaYX6OKgZsaJezbjnv-113" style="edgeStyle=orthogonalEdgeStyle;rounded=0;orthogonalLoop=1;jettySize=auto;html=1;startArrow=none;startFill=0;endArrow=open;endFill=0;strokeColor=#808080;strokeWidth=2;" edge="1" parent="1" source="gxRaYX6OKgZsaJezbjnv-120" target="gxRaYX6OKgZsaJezbjnv-125">
          <mxGeometry relative="1" as="geometry">
            <Array as="points">
              <mxPoint x="387" y="490" />
            </Array>
          </mxGeometry>
        </mxCell>
        <mxCell id="gxRaYX6OKgZsaJezbjnv-114" style="edgeStyle=orthogonalEdgeStyle;rounded=0;orthogonalLoop=1;jettySize=auto;html=1;startArrow=none;startFill=0;endArrow=open;endFill=0;strokeColor=#808080;strokeWidth=2;" edge="1" parent="1" source="gxRaYX6OKgZsaJezbjnv-121" target="gxRaYX6OKgZsaJezbjnv-122">
          <mxGeometry relative="1" as="geometry" />
        </mxCell>
        <mxCell id="gxRaYX6OKgZsaJezbjnv-115" style="edgeStyle=orthogonalEdgeStyle;rounded=0;orthogonalLoop=1;jettySize=auto;html=1;startArrow=none;startFill=0;endArrow=open;endFill=0;strokeColor=#808080;strokeWidth=2;" edge="1" parent="1" source="gxRaYX6OKgZsaJezbjnv-121" target="gxRaYX6OKgZsaJezbjnv-126">
          <mxGeometry relative="1" as="geometry" />
        </mxCell>
        <mxCell id="gxRaYX6OKgZsaJezbjnv-116" style="edgeStyle=orthogonalEdgeStyle;rounded=0;orthogonalLoop=1;jettySize=auto;html=1;startArrow=none;startFill=0;endArrow=open;endFill=0;strokeColor=#808080;strokeWidth=2;" edge="1" parent="1" source="gxRaYX6OKgZsaJezbjnv-126" target="gxRaYX6OKgZsaJezbjnv-105">
          <mxGeometry relative="1" as="geometry">
            <Array as="points">
              <mxPoint x="550" y="810" />
              <mxPoint x="140" y="810" />
            </Array>
          </mxGeometry>
        </mxCell>
        <mxCell id="gxRaYX6OKgZsaJezbjnv-117" style="edgeStyle=orthogonalEdgeStyle;rounded=0;orthogonalLoop=1;jettySize=auto;html=1;startArrow=none;startFill=0;endArrow=open;endFill=0;strokeColor=#808080;strokeWidth=2;" edge="1" parent="1" source="gxRaYX6OKgZsaJezbjnv-126" target="gxRaYX6OKgZsaJezbjnv-106">
          <mxGeometry relative="1" as="geometry">
            <Array as="points">
              <mxPoint x="550" y="810" />
              <mxPoint x="485" y="810" />
            </Array>
          </mxGeometry>
        </mxCell>
        <mxCell id="gxRaYX6OKgZsaJezbjnv-118" style="edgeStyle=orthogonalEdgeStyle;rounded=0;orthogonalLoop=1;jettySize=auto;html=1;entryX=0.5;entryY=0;entryDx=0;entryDy=0;startArrow=none;startFill=0;endArrow=open;endFill=0;strokeColor=#808080;strokeWidth=2;" edge="1" parent="1" source="gxRaYX6OKgZsaJezbjnv-126" target="gxRaYX6OKgZsaJezbjnv-107">
          <mxGeometry relative="1" as="geometry">
            <Array as="points">
              <mxPoint x="550" y="810" />
              <mxPoint x="646" y="810" />
            </Array>
          </mxGeometry>
        </mxCell>
        <mxCell id="gxRaYX6OKgZsaJezbjnv-119" value="Amazon S3&lt;br&gt;Bucket&lt;br&gt;" style="outlineConnect=0;fontColor=#232F3E;gradientColor=none;fillColor=#277116;strokeColor=none;dashed=0;verticalLabelPosition=bottom;verticalAlign=top;align=center;html=1;fontSize=12;fontStyle=0;aspect=fixed;pointerEvents=1;shape=mxgraph.aws4.bucket;labelBackgroundColor=#ffffff;" vertex="1" parent="1">
          <mxGeometry x="60" y="430" width="75" height="78" as="geometry" />
        </mxCell>
        <mxCell id="gxRaYX6OKgZsaJezbjnv-120" value="AWS&lt;br&gt;CodePipeline&lt;br&gt;" style="outlineConnect=0;fontColor=#232F3E;gradientColor=#4D72F3;gradientDirection=north;fillColor=#3334B9;strokeColor=#ffffff;dashed=0;verticalLabelPosition=bottom;verticalAlign=top;align=center;html=1;fontSize=12;fontStyle=0;aspect=fixed;shape=mxgraph.aws4.resourceIcon;resIcon=mxgraph.aws4.codepipeline;labelBackgroundColor=#ffffff;" vertex="1" parent="1">
          <mxGeometry x="240" y="430" width="78" height="78" as="geometry" />
        </mxCell>
        <mxCell id="gxRaYX6OKgZsaJezbjnv-121" value="AWS&lt;br&gt;Organizations&lt;br&gt;" style="outlineConnect=0;fontColor=#232F3E;gradientColor=#F54749;gradientDirection=north;fillColor=#C7131F;strokeColor=#ffffff;dashed=0;verticalLabelPosition=bottom;verticalAlign=top;align=center;html=1;fontSize=12;fontStyle=0;aspect=fixed;shape=mxgraph.aws4.resourceIcon;resIcon=mxgraph.aws4.organizations;labelBackgroundColor=#ffffff;" vertex="1" parent="1">
          <mxGeometry x="511" y="430" width="78" height="78" as="geometry" />
        </mxCell>
        <mxCell id="gxRaYX6OKgZsaJezbjnv-122" value="AWS Single&lt;br&gt;Sign-on&lt;br&gt;" style="outlineConnect=0;fontColor=#232F3E;gradientColor=#F34482;gradientDirection=north;fillColor=#BC1356;strokeColor=#ffffff;dashed=0;verticalLabelPosition=bottom;verticalAlign=top;align=center;html=1;fontSize=12;fontStyle=0;aspect=fixed;shape=mxgraph.aws4.resourceIcon;resIcon=mxgraph.aws4.cloudwatch;labelBackgroundColor=#ffffff;" vertex="1" parent="1">
          <mxGeometry x="667" y="430" width="78" height="78" as="geometry" />
        </mxCell>
        <mxCell id="gxRaYX6OKgZsaJezbjnv-123" value="Account&lt;br&gt;Baseline&lt;br&gt;" style="outlineConnect=0;fontColor=#232F3E;gradientColor=#F34482;gradientDirection=north;fillColor=#BC1356;strokeColor=#ffffff;dashed=0;verticalLabelPosition=bottom;verticalAlign=top;align=center;html=1;fontSize=12;fontStyle=0;aspect=fixed;shape=mxgraph.aws4.resourceIcon;resIcon=mxgraph.aws4.cloudformation;labelBackgroundColor=#ffffff;" vertex="1" parent="1">
          <mxGeometry x="127" y="610" width="78" height="78" as="geometry" />
        </mxCell>
        <mxCell id="gxRaYX6OKgZsaJezbjnv-124" value="AWS Service&lt;br&gt;Catalog&lt;br&gt;" style="outlineConnect=0;fontColor=#232F3E;gradientColor=#F34482;gradientDirection=north;fillColor=#BC1356;strokeColor=#ffffff;dashed=0;verticalLabelPosition=bottom;verticalAlign=top;align=center;html=1;fontSize=12;fontStyle=0;aspect=fixed;shape=mxgraph.aws4.resourceIcon;resIcon=mxgraph.aws4.service_catalog;labelBackgroundColor=#ffffff;" vertex="1" parent="1">
          <mxGeometry x="240" y="610" width="78" height="78" as="geometry" />
        </mxCell>
        <mxCell id="gxRaYX6OKgZsaJezbjnv-125" value="AWS&lt;br&gt;Parameter&lt;br&gt;Store&lt;br&gt;" style="outlineConnect=0;fontColor=#232F3E;gradientColor=none;fillColor=#BC1356;strokeColor=none;dashed=0;verticalLabelPosition=bottom;verticalAlign=top;align=center;html=1;fontSize=12;fontStyle=0;aspect=fixed;pointerEvents=1;shape=mxgraph.aws4.parameter_store;labelBackgroundColor=#ffffff;" vertex="1" parent="1">
          <mxGeometry x="350" y="610" width="75" height="78" as="geometry" />
        </mxCell>
        <mxCell id="gxRaYX6OKgZsaJezbjnv-126" value="Core OU" style="outlineConnect=0;fontColor=#232F3E;gradientColor=none;fillColor=#BC1356;strokeColor=none;dashed=0;verticalLabelPosition=bottom;verticalAlign=top;align=center;html=1;fontSize=12;fontStyle=0;aspect=fixed;pointerEvents=1;shape=mxgraph.aws4.resources;labelBackgroundColor=#ffffff;" vertex="1" parent="1">
          <mxGeometry x="516" y="620" width="68" height="78" as="geometry" />
        </mxCell>
        <mxCell id="gxRaYX6OKgZsaJezbjnv-127" value="Account&lt;br&gt;Baseline&lt;br&gt;" style="outlineConnect=0;fontColor=#232F3E;gradientColor=#F34482;gradientDirection=north;fillColor=#BC1356;strokeColor=#ffffff;dashed=0;verticalLabelPosition=bottom;verticalAlign=top;align=center;html=1;fontSize=12;fontStyle=0;aspect=fixed;shape=mxgraph.aws4.resourceIcon;resIcon=mxgraph.aws4.cloudformation;labelBackgroundColor=#ffffff;" vertex="1" parent="1">
          <mxGeometry x="50" y="882" width="78" height="78" as="geometry" />
        </mxCell>
        <mxCell id="gxRaYX6OKgZsaJezbjnv-128" value="Amazon VPC" style="outlineConnect=0;fontColor=#232F3E;gradientColor=#945DF2;gradientDirection=north;fillColor=#5A30B5;strokeColor=#ffffff;dashed=0;verticalLabelPosition=bottom;verticalAlign=top;align=center;html=1;fontSize=12;fontStyle=0;aspect=fixed;shape=mxgraph.aws4.resourceIcon;resIcon=mxgraph.aws4.vpc;labelBackgroundColor=#ffffff;" vertex="1" parent="1">
          <mxGeometry x="151" y="881" width="78" height="78" as="geometry" />
        </mxCell>
        <mxCell id="gxRaYX6OKgZsaJezbjnv-129" value="Account&lt;br&gt;Baseline&lt;br&gt;" style="outlineConnect=0;fontColor=#232F3E;gradientColor=#F34482;gradientDirection=north;fillColor=#BC1356;strokeColor=#ffffff;dashed=0;verticalLabelPosition=bottom;verticalAlign=top;align=center;html=1;fontSize=12;fontStyle=0;aspect=fixed;shape=mxgraph.aws4.resourceIcon;resIcon=mxgraph.aws4.cloudformation;labelBackgroundColor=#ffffff;" vertex="1" parent="1">
          <mxGeometry x="290" y="881" width="78" height="78" as="geometry" />
        </mxCell>
        <mxCell id="gxRaYX6OKgZsaJezbjnv-130" value="Aggregate&lt;br&gt;CloudTrail&lt;br&gt;and Config Logs&lt;br&gt;" style="outlineConnect=0;fontColor=#232F3E;gradientColor=none;fillColor=#5A30B5;strokeColor=none;dashed=0;verticalLabelPosition=bottom;verticalAlign=top;align=center;html=1;fontSize=12;fontStyle=0;aspect=fixed;pointerEvents=1;shape=mxgraph.aws4.flow_logs;labelBackgroundColor=#ffffff;" vertex="1" parent="1">
          <mxGeometry x="392" y="880" width="78" height="78" as="geometry" />
        </mxCell>
        <mxCell id="gxRaYX6OKgZsaJezbjnv-131" value="Account&lt;br&gt;Baseline&lt;br&gt;" style="outlineConnect=0;fontColor=#232F3E;gradientColor=#F34482;gradientDirection=north;fillColor=#BC1356;strokeColor=#ffffff;dashed=0;verticalLabelPosition=bottom;verticalAlign=top;align=center;html=1;fontSize=12;fontStyle=0;aspect=fixed;shape=mxgraph.aws4.resourceIcon;resIcon=mxgraph.aws4.cloudformation;labelBackgroundColor=#ffffff;" vertex="1" parent="1">
          <mxGeometry x="551" y="880" width="78" height="78" as="geometry" />
        </mxCell>
        <mxCell id="gxRaYX6OKgZsaJezbjnv-132" value="Security&lt;br&gt;Cross-Account&lt;br&gt;Roles&lt;br&gt;" style="outlineConnect=0;fontColor=#232F3E;gradientColor=none;fillColor=#C7131F;strokeColor=none;dashed=0;verticalLabelPosition=bottom;verticalAlign=top;align=center;html=1;fontSize=12;fontStyle=0;aspect=fixed;pointerEvents=1;shape=mxgraph.aws4.addon;labelBackgroundColor=#ffffff;" vertex="1" parent="1">
          <mxGeometry x="660" y="899" width="78" height="40" as="geometry" />
        </mxCell>
        <mxCell id="gxRaYX6OKgZsaJezbjnv-133" value="Amazon&lt;br&gt;GuardDuty&lt;br&gt;" style="outlineConnect=0;fontColor=#232F3E;gradientColor=#F54749;gradientDirection=north;fillColor=#C7131F;strokeColor=#ffffff;dashed=0;verticalLabelPosition=bottom;verticalAlign=top;align=center;html=1;fontSize=12;fontStyle=0;aspect=fixed;shape=mxgraph.aws4.resourceIcon;resIcon=mxgraph.aws4.guardduty;labelBackgroundColor=#ffffff;" vertex="1" parent="1">
          <mxGeometry x="551" y="1010" width="78" height="78" as="geometry" />
        </mxCell>
        <mxCell id="gxRaYX6OKgZsaJezbjnv-134" value="Amazon SNS" style="outlineConnect=0;fontColor=#232F3E;gradientColor=#F34482;gradientDirection=north;fillColor=#BC1356;strokeColor=#ffffff;dashed=0;verticalLabelPosition=bottom;verticalAlign=top;align=center;html=1;fontSize=12;fontStyle=0;aspect=fixed;shape=mxgraph.aws4.resourceIcon;resIcon=mxgraph.aws4.sns;labelBackgroundColor=#ffffff;" vertex="1" parent="1">
          <mxGeometry x="660" y="1010" width="78" height="78" as="geometry" />
        </mxCell>
      </root>
    </mxGraphModel>
  </diagram>
</mxfile>
